<svg xmlns="http://www.w3.org/2000/svg" xmlns:xlink="http://www.w3.org/1999/xlink" width="324px" height="85px" viewBox="0 0 324 85" version="1.1">
<defs>
<filter id="alpha" filterUnits="objectBoundingBox" x="0%" y="0%" width="100%" height="100%">
  <feColorMatrix type="matrix" in="SourceGraphic" values="0 0 0 0 1 0 0 0 0 1 0 0 0 0 1 0 0 0 1 0"/>
</filter>
<mask id="mask0">
  <g filter="url(#alpha)">
<rect x="0" y="0" width="324" height="85" style="fill:rgb(0%,0%,0%);fill-opacity:0.992157;stroke:none;"/>
  </g>
</mask>
<clipPath id="clip1">
  <rect x="0" y="0" width="324" height="85"/>
</clipPath>
<g id="surface5" clip-path="url(#clip1)">
<path style=" stroke:none;fill-rule:evenodd;fill:currentColor;fill-opacity:1;" d="M 13.183594 -0.0859375 C 23.542969 -0.0859375 33.902344 -0.0859375 44.257812 -0.0859375 C 44.257812 1.375 44.257812 2.832031 44.257812 4.292969 C 45.714844 4.292969 47.167969 4.292969 48.625 4.292969 C 48.625 7.265625 48.625 10.238281 48.625 13.210938 C 47.167969 13.210938 45.714844 13.210938 44.257812 13.210938 C 44.257812 14.726562 44.257812 16.242188 44.257812 17.757812 C 41.289062 17.757812 38.324219 17.757812 35.355469 17.757812 C 35.355469 23.59375 35.355469 29.425781 35.355469 35.261719 C 36.867188 35.261719 38.378906 35.261719 39.890625 35.261719 C 39.890625 39.695312 39.890625 44.128906 39.890625 48.558594 C 38.378906 48.558594 36.867188 48.558594 35.355469 48.558594 C 35.355469 50.019531 35.355469 51.476562 35.355469 52.9375 C 30.933594 52.9375 26.511719 52.9375 22.085938 52.9375 C 22.085938 50.019531 22.085938 47.101562 22.085938 44.183594 C 20.574219 44.183594 19.0625 44.183594 17.550781 44.183594 C 17.550781 36.832031 17.550781 29.484375 17.550781 22.132812 C 16.152344 22.132812 14.753906 22.132812 13.351562 22.132812 C 13.351562 23.59375 13.351562 25.050781 13.351562 26.511719 C 10.386719 26.511719 7.417969 26.511719 4.449219 26.511719 C 4.449219 25.050781 4.449219 23.59375 4.449219 22.132812 C 2.9375 22.132812 1.425781 22.132812 -0.0820312 22.132812 C -0.0820312 17.644531 -0.0820312 13.15625 -0.0820312 8.667969 C 1.425781 8.667969 2.9375 8.667969 4.449219 8.667969 C 4.449219 7.210938 4.449219 5.75 4.449219 4.292969 C 7.363281 4.292969 10.273438 4.292969 13.183594 4.292969 C 13.183594 2.832031 13.183594 1.375 13.183594 -0.0859375 Z M 13.183594 -0.0859375 "/>
</g>
<mask id="mask1">
  <g filter="url(#alpha)">
<rect x="0" y="0" width="324" height="85" style="fill:rgb(0%,0%,0%);fill-opacity:0.992157;stroke:none;"/>
  </g>
</mask>
<clipPath id="clip2">
  <rect x="0" y="0" width="324" height="85"/>
</clipPath>
<g id="surface8" clip-path="url(#clip2)">
<path style=" stroke:none;fill-rule:evenodd;fill:currentColor;fill-opacity:1;" d="M 103.550781 -0.0859375 C 113.90625 -0.0859375 124.265625 -0.0859375 134.621094 -0.0859375 C 134.621094 1.375 134.621094 2.832031 134.621094 4.292969 C 136.078125 4.292969 137.535156 4.292969 138.988281 4.292969 C 138.988281 7.265625 138.988281 10.238281 138.988281 13.210938 C 137.535156 13.210938 136.078125 13.210938 134.621094 13.210938 C 134.621094 14.726562 134.621094 16.242188 134.621094 17.757812 C 131.65625 17.757812 128.6875 17.757812 125.71875 17.757812 C 125.71875 23.59375 125.71875 29.425781 125.71875 35.261719 C 127.230469 35.261719 128.742188 35.261719 130.253906 35.261719 C 130.253906 39.695312 130.253906 44.128906 130.253906 48.558594 C 128.742188 48.558594 127.230469 48.558594 125.71875 48.558594 C 125.71875 50.019531 125.71875 51.476562 125.71875 52.9375 C 121.296875 52.9375 116.875 52.9375 112.449219 52.9375 C 112.449219 50.019531 112.449219 47.101562 112.449219 44.183594 C 110.9375 44.183594 109.425781 44.183594 107.917969 44.183594 C 107.917969 36.832031 107.917969 29.484375 107.917969 22.132812 C 106.515625 22.132812 105.117188 22.132812 103.71875 22.132812 C 103.71875 23.59375 103.71875 25.050781 103.71875 26.511719 C 100.75 26.511719 97.78125 26.511719 94.816406 26.511719 C 94.816406 25.050781 94.816406 23.59375 94.816406 22.132812 C 93.304688 22.132812 91.792969 22.132812 90.28125 22.132812 C 90.28125 17.644531 90.28125 13.15625 90.28125 8.667969 C 91.792969 8.667969 93.304688 8.667969 94.816406 8.667969 C 94.816406 7.210938 94.816406 5.75 94.816406 4.292969 C 97.726562 4.292969 100.636719 4.292969 103.550781 4.292969 C 103.550781 2.832031 103.550781 1.375 103.550781 -0.0859375 Z M 103.550781 -0.0859375 "/>
</g>
<mask id="mask2">
  <g filter="url(#alpha)">
<rect x="0" y="0" width="324" height="85" style="fill:rgb(0%,0%,0%);fill-opacity:0.992157;stroke:none;"/>
  </g>
</mask>
<clipPath id="clip3">
  <rect x="0" y="0" width="324" height="85"/>
</clipPath>
<g id="surface11" clip-path="url(#clip3)">
<path style=" stroke:none;fill-rule:evenodd;fill:currentColor;fill-opacity:1;" d="M 207.183594 -0.0859375 C 217.539062 -0.0859375 227.898438 -0.0859375 238.253906 -0.0859375 C 238.253906 1.375 238.253906 2.832031 238.253906 4.292969 C 239.710938 4.292969 241.164062 4.292969 242.621094 4.292969 C 242.621094 7.265625 242.621094 10.238281 242.621094 13.210938 C 241.164062 13.210938 239.710938 13.210938 238.253906 13.210938 C 238.253906 14.726562 238.253906 16.242188 238.253906 17.757812 C 235.289062 17.757812 232.320312 17.757812 229.351562 17.757812 C 229.351562 23.59375 229.351562 29.425781 229.351562 35.261719 C 230.863281 35.261719 232.375 35.261719 233.886719 35.261719 C 233.886719 39.695312 233.886719 44.128906 233.886719 48.558594 C 232.375 48.558594 230.863281 48.558594 229.351562 48.558594 C 229.351562 50.019531 229.351562 51.476562 229.351562 52.9375 C 224.929688 52.9375 220.507812 52.9375 216.082031 52.9375 C 216.082031 50.019531 216.082031 47.101562 216.082031 44.183594 C 214.574219 44.183594 213.0625 44.183594 211.550781 44.183594 C 211.550781 36.832031 211.550781 29.484375 211.550781 22.132812 C 210.148438 22.132812 208.75 22.132812 207.351562 22.132812 C 207.351562 23.59375 207.351562 25.050781 207.351562 26.511719 C 204.382812 26.511719 201.414062 26.511719 198.449219 26.511719 C 198.449219 25.050781 198.449219 23.59375 198.449219 22.132812 C 196.9375 22.132812 195.425781 22.132812 193.914062 22.132812 C 193.914062 17.644531 193.914062 13.15625 193.914062 8.667969 C 195.425781 8.667969 196.9375 8.667969 198.449219 8.667969 C 198.449219 7.210938 198.449219 5.75 198.449219 4.292969 C 201.359375 4.292969 204.269531 4.292969 207.183594 4.292969 C 207.183594 2.832031 207.183594 1.375 207.183594 -0.0859375 Z M 207.183594 -0.0859375 "/>
</g>
<mask id="mask3">
  <g filter="url(#alpha)">
<rect x="0" y="0" width="324" height="85" style="fill:rgb(0%,0%,0%);fill-opacity:0.980392;stroke:none;"/>
  </g>
</mask>
<clipPath id="clip4">
  <rect x="0" y="0" width="324" height="85"/>
</clipPath>
<g id="surface14" clip-path="url(#clip4)">
<path style=" stroke:none;fill-rule:evenodd;fill:currentColor;fill-opacity:1;" d="M 54.167969 17.589844 C 55.679688 17.589844 57.191406 17.589844 58.703125 17.589844 C 58.703125 18.320312 58.703125 19.046875 58.703125 19.777344 C 59.429688 19.777344 60.160156 19.777344 60.886719 19.777344 C 60.886719 24.152344 60.886719 28.53125 60.886719 32.90625 C 61.671875 32.90625 62.453125 32.90625 63.238281 32.90625 C 63.238281 35.9375 63.238281 38.964844 63.238281 41.996094 C 62.453125 41.996094 61.671875 41.996094 60.886719 41.996094 C 60.886719 42.722656 60.886719 43.453125 60.886719 44.183594 C 58.648438 44.183594 56.40625 44.183594 54.167969 44.183594 C 54.167969 43.453125 54.167969 42.722656 54.167969 41.996094 C 53.441406 41.996094 52.710938 41.996094 51.984375 41.996094 C 51.984375 34.589844 51.984375 27.183594 51.984375 19.777344 C 52.710938 19.777344 53.441406 19.777344 54.167969 19.777344 C 54.167969 19.046875 54.167969 18.320312 54.167969 17.589844 Z M 54.167969 17.589844 "/>
</g>
<mask id="mask4">
  <g filter="url(#alpha)">
<rect x="0" y="0" width="324" height="85" style="fill:rgb(0%,0%,0%);fill-opacity:0.976471;stroke:none;"/>
  </g>
</mask>
<clipPath id="clip5">
  <rect x="0" y="0" width="324" height="85"/>
</clipPath>
<g id="surface17" clip-path="url(#clip5)">
<path style=" stroke:none;fill-rule:evenodd;fill:currentColor;fill-opacity:1;" d="M 73.988281 17.589844 C 77.011719 17.589844 80.035156 17.589844 83.058594 17.589844 C 83.058594 18.320312 83.058594 19.046875 83.058594 19.777344 C 83.785156 19.777344 84.511719 19.777344 85.242188 19.777344 C 85.242188 21.292969 85.242188 22.808594 85.242188 24.320312 C 84.511719 24.320312 83.785156 24.320312 83.058594 24.320312 C 83.058594 25.050781 83.058594 25.78125 83.058594 26.511719 C 80.875 26.511719 78.691406 26.511719 76.507812 26.511719 C 76.507812 27.238281 76.507812 27.96875 76.507812 28.699219 C 75.722656 28.699219 74.9375 28.699219 74.15625 28.699219 C 74.15625 30.101562 74.15625 31.503906 74.15625 32.90625 C 74.9375 32.90625 75.722656 32.90625 76.507812 32.90625 C 76.507812 33.691406 76.507812 34.476562 76.507812 35.261719 C 77.90625 35.261719 79.304688 35.261719 80.707031 35.261719 C 80.707031 34.476562 80.707031 33.691406 80.707031 32.90625 C 82.21875 32.90625 83.730469 32.90625 85.242188 32.90625 C 85.242188 33.691406 85.242188 34.476562 85.242188 35.261719 C 85.96875 35.261719 86.695312 35.261719 87.425781 35.261719 C 87.425781 37.507812 87.425781 39.75 87.425781 41.996094 C 85.96875 41.996094 84.511719 41.996094 83.058594 41.996094 C 83.058594 42.722656 83.058594 43.453125 83.058594 44.183594 C 80.035156 44.183594 77.011719 44.183594 73.988281 44.183594 C 73.988281 43.453125 73.988281 42.722656 73.988281 41.996094 C 72.53125 41.996094 71.078125 41.996094 69.621094 41.996094 C 69.621094 41.265625 69.621094 40.535156 69.621094 39.808594 C 68.894531 39.808594 68.164062 39.808594 67.4375 39.808594 C 67.4375 38.347656 67.4375 36.890625 67.4375 35.429688 C 66.710938 35.429688 65.980469 35.429688 65.253906 35.429688 C 65.253906 32.402344 65.253906 29.371094 65.253906 26.339844 C 65.980469 26.339844 66.710938 26.339844 67.4375 26.339844 C 67.4375 24.882812 67.4375 23.425781 67.4375 21.964844 C 68.164062 21.964844 68.894531 21.964844 69.621094 21.964844 C 69.621094 21.234375 69.621094 20.507812 69.621094 19.777344 C 71.078125 19.777344 72.53125 19.777344 73.988281 19.777344 C 73.988281 19.046875 73.988281 18.320312 73.988281 17.589844 Z M 73.988281 17.589844 "/>
</g>
<mask id="mask5">
  <g filter="url(#alpha)">
<rect x="0" y="0" width="324" height="85" style="fill:rgb(0%,0%,0%);fill-opacity:0.976471;stroke:none;"/>
  </g>
</mask>
<clipPath id="clip6">
  <rect x="0" y="0" width="324" height="85"/>
</clipPath>
<g id="surface20" clip-path="url(#clip6)">
<path style=" stroke:none;fill-rule:evenodd;fill:currentColor;fill-opacity:1;" d="M 153.433594 17.589844 C 156.402344 17.589844 159.367188 17.589844 162.335938 17.589844 C 162.335938 18.320312 162.335938 19.046875 162.335938 19.777344 C 163.0625 19.777344 163.792969 19.777344 164.519531 19.777344 C 164.519531 21.234375 164.519531 22.695312 164.519531 24.152344 C 165.246094 24.152344 165.976562 24.152344 166.703125 24.152344 C 166.703125 30.101562 166.703125 36.046875 166.703125 41.996094 C 165.976562 41.996094 165.246094 41.996094 164.519531 41.996094 C 164.519531 42.722656 164.519531 43.453125 164.519531 44.183594 C 163.007812 44.183594 161.496094 44.183594 159.984375 44.183594 C 159.984375 43.453125 159.984375 42.722656 159.984375 41.996094 C 159.257812 41.996094 158.527344 41.996094 157.800781 41.996094 C 157.800781 41.265625 157.800781 40.535156 157.800781 39.808594 C 157.074219 39.808594 156.34375 39.808594 155.617188 39.808594 C 155.617188 39.078125 155.617188 38.347656 155.617188 37.617188 C 154.160156 37.617188 152.707031 37.617188 151.25 37.617188 C 151.25 38.347656 151.25 39.078125 151.25 39.808594 C 150.523438 39.808594 149.792969 39.808594 149.066406 39.808594 C 149.066406 40.535156 149.066406 41.265625 149.066406 41.996094 C 147.554688 41.996094 146.042969 41.996094 144.53125 41.996094 C 144.53125 41.265625 144.53125 40.535156 144.53125 39.808594 C 143.804688 39.808594 143.074219 39.808594 142.347656 39.808594 C 142.347656 37.507812 142.347656 35.207031 142.347656 32.90625 C 143.074219 32.90625 143.804688 32.90625 144.53125 32.90625 C 144.53125 31.445312 144.53125 29.988281 144.53125 28.53125 C 145.257812 28.53125 145.988281 28.53125 146.714844 28.53125 C 146.714844 27.070312 146.714844 25.613281 146.714844 24.152344 C 147.441406 24.152344 148.171875 24.152344 148.898438 24.152344 C 148.898438 23.425781 148.898438 22.695312 148.898438 21.964844 C 149.625 21.964844 150.355469 21.964844 151.082031 21.964844 C 151.082031 21.234375 151.082031 20.507812 151.082031 19.777344 C 151.867188 19.777344 152.648438 19.777344 153.433594 19.777344 C 153.433594 19.046875 153.433594 18.320312 153.433594 17.589844 Z M 155.785156 26.511719 C 157.183594 26.511719 158.585938 26.511719 159.984375 26.511719 C 159.984375 28.640625 159.984375 30.773438 159.984375 32.90625 C 159.3125 32.90625 158.640625 32.90625 157.96875 32.90625 C 157.96875 32.175781 157.96875 31.445312 157.96875 30.71875 C 156.511719 30.71875 155.058594 30.71875 153.601562 30.71875 C 153.601562 30.042969 153.601562 29.371094 153.601562 28.699219 C 154.328125 28.699219 155.058594 28.699219 155.785156 28.699219 C 155.785156 27.96875 155.785156 27.238281 155.785156 26.511719 Z M 155.785156 26.511719 "/>
</g>
<mask id="mask6">
  <g filter="url(#alpha)">
<rect x="0" y="0" width="324" height="85" style="fill:rgb(0%,0%,0%);fill-opacity:0.976471;stroke:none;"/>
  </g>
</mask>
<clipPath id="clip7">
  <rect x="0" y="0" width="324" height="85"/>
</clipPath>
<g id="surface23" clip-path="url(#clip7)">
<path style=" stroke:none;fill-rule:evenodd;fill:currentColor;fill-opacity:1;" d="M 177.621094 17.589844 C 180.644531 17.589844 183.667969 17.589844 186.691406 17.589844 C 186.691406 18.320312 186.691406 19.046875 186.691406 19.777344 C 187.417969 19.777344 188.148438 19.777344 188.875 19.777344 C 188.875 21.292969 188.875 22.808594 188.875 24.320312 C 188.148438 24.320312 187.417969 24.320312 186.691406 24.320312 C 186.691406 25.050781 186.691406 25.78125 186.691406 26.511719 C 184.507812 26.511719 182.324219 26.511719 180.140625 26.511719 C 180.140625 27.238281 180.140625 27.96875 180.140625 28.699219 C 179.355469 28.699219 178.574219 28.699219 177.789062 28.699219 C 177.789062 30.101562 177.789062 31.503906 177.789062 32.90625 C 178.574219 32.90625 179.355469 32.90625 180.140625 32.90625 C 180.140625 33.691406 180.140625 34.476562 180.140625 35.261719 C 181.539062 35.261719 182.941406 35.261719 184.339844 35.261719 C 184.339844 34.476562 184.339844 33.691406 184.339844 32.90625 C 185.851562 32.90625 187.363281 32.90625 188.875 32.90625 C 188.875 33.691406 188.875 34.476562 188.875 35.261719 C 189.601562 35.261719 190.332031 35.261719 191.058594 35.261719 C 191.058594 37.507812 191.058594 39.75 191.058594 41.996094 C 189.601562 41.996094 188.148438 41.996094 186.691406 41.996094 C 186.691406 42.722656 186.691406 43.453125 186.691406 44.183594 C 183.667969 44.183594 180.644531 44.183594 177.621094 44.183594 C 177.621094 43.453125 177.621094 42.722656 177.621094 41.996094 C 176.164062 41.996094 174.710938 41.996094 173.253906 41.996094 C 173.253906 41.265625 173.253906 40.535156 173.253906 39.808594 C 172.527344 39.808594 171.796875 39.808594 171.070312 39.808594 C 171.070312 38.347656 171.070312 36.890625 171.070312 35.429688 C 170.34375 35.429688 169.613281 35.429688 168.886719 35.429688 C 168.886719 32.402344 168.886719 29.371094 168.886719 26.339844 C 169.613281 26.339844 170.34375 26.339844 171.070312 26.339844 C 171.070312 24.882812 171.070312 23.425781 171.070312 21.964844 C 171.796875 21.964844 172.527344 21.964844 173.253906 21.964844 C 173.253906 21.234375 173.253906 20.507812 173.253906 19.777344 C 174.710938 19.777344 176.164062 19.777344 177.621094 19.777344 C 177.621094 19.046875 177.621094 18.320312 177.621094 17.589844 Z M 177.621094 17.589844 "/>
</g>
<mask id="mask7">
  <g filter="url(#alpha)">
<rect x="0" y="0" width="324" height="85" style="fill:rgb(0%,0%,0%);fill-opacity:0.980392;stroke:none;"/>
  </g>
</mask>
<clipPath id="clip8">
  <rect x="0" y="0" width="324" height="85"/>
</clipPath>
<g id="surface26" clip-path="url(#clip8)">
<path style=" stroke:none;fill-rule:evenodd;fill:currentColor;fill-opacity:1;" d="M 254.714844 17.589844 C 257.011719 17.589844 259.304688 17.589844 261.601562 17.589844 C 261.601562 18.320312 261.601562 19.046875 261.601562 19.777344 C 263.058594 19.777344 264.511719 19.777344 265.96875 19.777344 C 265.96875 20.507812 265.96875 21.234375 265.96875 21.964844 C 266.695312 21.964844 267.425781 21.964844 268.152344 21.964844 C 268.152344 23.425781 268.152344 24.882812 268.152344 26.339844 C 268.878906 26.339844 269.609375 26.339844 270.335938 26.339844 C 270.335938 30.101562 270.335938 33.859375 270.335938 37.617188 C 269.609375 37.617188 268.878906 37.617188 268.152344 37.617188 C 268.152344 39.078125 268.152344 40.535156 268.152344 41.996094 C 266.695312 41.996094 265.242188 41.996094 263.785156 41.996094 C 263.785156 42.722656 263.785156 43.453125 263.785156 44.183594 C 260.035156 44.183594 256.28125 44.183594 252.53125 44.183594 C 252.53125 43.453125 252.53125 42.722656 252.53125 41.996094 C 251.074219 41.996094 249.621094 41.996094 248.164062 41.996094 C 248.164062 40.535156 248.164062 39.078125 248.164062 37.617188 C 247.4375 37.617188 246.707031 37.617188 245.980469 37.617188 C 245.980469 33.859375 245.980469 30.101562 245.980469 26.339844 C 246.707031 26.339844 247.4375 26.339844 248.164062 26.339844 C 248.164062 24.882812 248.164062 23.425781 248.164062 21.964844 C 248.890625 21.964844 249.621094 21.964844 250.347656 21.964844 C 250.347656 21.234375 250.347656 20.507812 250.347656 19.777344 C 251.804688 19.777344 253.257812 19.777344 254.714844 19.777344 C 254.714844 19.046875 254.714844 18.320312 254.714844 17.589844 Z M 254.882812 24.320312 C 256.339844 24.320312 257.792969 24.320312 259.25 24.320312 C 259.25 25.050781 259.25 25.78125 259.25 26.511719 C 259.976562 26.511719 260.707031 26.511719 261.433594 26.511719 C 261.433594 27.914062 261.433594 29.316406 261.433594 30.71875 C 260.707031 30.71875 259.976562 30.71875 259.25 30.71875 C 259.25 31.445312 259.25 32.175781 259.25 32.90625 C 257.792969 32.90625 256.339844 32.90625 254.882812 32.90625 C 254.882812 32.175781 254.882812 31.445312 254.882812 30.71875 C 254.15625 30.71875 253.425781 30.71875 252.699219 30.71875 C 252.699219 29.316406 252.699219 27.914062 252.699219 26.511719 C 253.425781 26.511719 254.15625 26.511719 254.882812 26.511719 C 254.882812 25.78125 254.882812 25.050781 254.882812 24.320312 Z M 254.882812 24.320312 "/>
</g>
<mask id="mask8">
  <g filter="url(#alpha)">
<rect x="0" y="0" width="324" height="85" style="fill:rgb(0%,0%,0%);fill-opacity:0.960784;stroke:none;"/>
  </g>
</mask>
<clipPath id="clip9">
  <rect x="0" y="0" width="324" height="85"/>
</clipPath>
<g id="surface29" clip-path="url(#clip9)">
<path style=" stroke:none;fill-rule:evenodd;fill:currentColor;fill-opacity:1;" d="M 323.917969 59.667969 C 323.917969 59.894531 323.917969 60.117188 323.917969 60.339844 C 289.769531 68.40625 255.675781 76.597656 221.625 84.914062 C 221.515625 84.914062 221.402344 84.914062 221.289062 84.914062 C 219.375 76.605469 217.414062 68.300781 215.414062 60.003906 C 215.46875 59.894531 215.523438 59.78125 215.582031 59.667969 C 236.855469 54.535156 258.128906 49.402344 279.40625 44.265625 C 277.839844 44.183594 276.273438 44.15625 274.703125 44.183594 C 274.703125 43.453125 274.703125 42.722656 274.703125 41.996094 C 273.976562 41.996094 273.246094 41.996094 272.519531 41.996094 C 272.519531 38.234375 272.519531 34.476562 272.519531 30.71875 C 273.246094 30.71875 273.976562 30.71875 274.703125 30.71875 C 274.703125 28.53125 274.703125 26.339844 274.703125 24.152344 C 275.429688 24.152344 276.160156 24.152344 276.886719 24.152344 C 276.886719 22.695312 276.886719 21.234375 276.886719 19.777344 C 277.613281 19.777344 278.34375 19.777344 279.070312 19.777344 C 279.070312 19.046875 279.070312 18.320312 279.070312 17.589844 C 283.550781 17.589844 288.027344 17.589844 292.507812 17.589844 C 292.507812 18.320312 292.507812 19.046875 292.507812 19.777344 C 293.234375 19.777344 293.964844 19.777344 294.691406 19.777344 C 294.691406 21.292969 294.691406 22.808594 294.691406 24.320312 C 293.964844 24.320312 293.234375 24.320312 292.507812 24.320312 C 292.507812 25.050781 292.507812 25.78125 292.507812 26.511719 C 289.597656 26.511719 286.683594 26.511719 283.773438 26.511719 C 283.773438 27.183594 283.773438 27.855469 283.773438 28.53125 C 285.957031 28.53125 288.140625 28.53125 290.324219 28.53125 C 290.324219 30.042969 290.324219 31.558594 290.324219 33.074219 C 289.597656 33.074219 288.867188 33.074219 288.140625 33.074219 C 288.140625 33.859375 288.140625 34.644531 288.140625 35.429688 C 285.902344 35.429688 283.660156 35.429688 281.421875 35.429688 C 281.421875 36.105469 281.421875 36.777344 281.421875 37.449219 C 285.117188 37.449219 288.8125 37.449219 292.507812 37.449219 C 292.453125 38.691406 292.507812 39.925781 292.675781 41.152344 C 301.054688 39.042969 309.453125 37.050781 317.871094 35.179688 C 319.875 43.359375 321.890625 51.523438 323.917969 59.667969 Z M 313.167969 43.511719 C 313.839844 43.398438 314.117188 43.679688 314.007812 44.351562 C 314.300781 44.375 314.582031 44.320312 314.847656 44.183594 C 315.308594 45.894531 315.757812 47.605469 316.191406 49.316406 C 315.925781 49.480469 315.648438 49.621094 315.351562 49.738281 C 315.621094 50.964844 315.957031 52.171875 316.359375 53.355469 C 316.03125 53.492188 315.695312 53.578125 315.351562 53.609375 C 315.316406 53.886719 315.371094 54.136719 315.519531 54.367188 C 314.707031 54.632812 313.894531 54.886719 313.082031 55.125 C 312.964844 54.316406 312.546875 54.089844 311.824219 54.449219 C 311.710938 53.832031 311.597656 53.214844 311.488281 52.597656 C 311.15625 52.558594 310.847656 52.613281 310.5625 52.765625 C 310.410156 51.765625 310.132812 50.8125 309.722656 49.90625 C 309.425781 50.03125 309.113281 50.144531 308.800781 50.242188 C 308.902344 51.8125 309.238281 53.355469 309.808594 54.871094 C 309.550781 55.042969 309.269531 55.125 308.96875 55.125 C 309.027344 55.46875 309.027344 55.777344 308.96875 56.050781 C 308.476562 56.152344 308 56.292969 307.539062 56.46875 C 307.496094 56.109375 307.328125 55.828125 307.035156 55.628906 C 306.789062 55.769531 306.535156 55.796875 306.28125 55.710938 C 306.355469 55.644531 306.414062 55.558594 306.449219 55.460938 C 306.050781 53.789062 305.601562 52.132812 305.105469 50.496094 C 305.359375 50.324219 305.640625 50.242188 305.945312 50.242188 C 305.730469 49.019531 305.449219 47.8125 305.105469 46.625 C 306.066406 46.574219 306.289062 46.183594 305.777344 45.445312 C 306.632812 45.09375 307.503906 44.953125 308.378906 45.023438 C 308.460938 45.242188 308.492188 45.46875 308.464844 45.699219 C 308.859375 45.667969 309.25 45.613281 309.640625 45.53125 C 309.644531 46.175781 309.785156 46.792969 310.058594 47.382812 C 310.398438 47.128906 310.679688 47.1875 310.898438 47.550781 C 311.039062 48.285156 311.207031 49.015625 311.402344 49.738281 C 311.472656 49.816406 311.554688 49.871094 311.65625 49.90625 C 311.925781 49.796875 312.207031 49.710938 312.496094 49.652344 C 312.59375 49.503906 312.648438 49.335938 312.664062 49.148438 C 312.363281 47.820312 312.03125 46.5 311.65625 45.191406 C 311.914062 44.992188 312.195312 44.824219 312.496094 44.6875 C 312.160156 43.957031 312.386719 43.566406 313.167969 43.511719 Z M 298.554688 47.042969 C 298.777344 47.042969 299.003906 47.042969 299.226562 47.042969 C 299.179688 47.460938 299.347656 47.742188 299.730469 47.886719 C 300.28125 47.71875 300.839844 47.609375 301.410156 47.550781 C 301.398438 48.257812 301.703125 48.480469 302.332031 48.222656 C 302.507812 48.820312 302.703125 49.410156 302.921875 49.988281 C 303.242188 49.96875 303.578125 49.9375 303.929688 49.90625 C 304.179688 51.199219 304.460938 52.488281 304.769531 53.777344 C 304.625 54.160156 304.34375 54.328125 303.929688 54.28125 C 303.980469 54.960938 304.148438 55.605469 304.433594 56.21875 C 303.832031 56.4375 303.214844 56.578125 302.585938 56.636719 C 302.644531 56.980469 302.644531 57.289062 302.585938 57.5625 C 301.199219 57.953125 299.800781 58.261719 298.386719 58.488281 C 298.386719 58.265625 298.386719 58.042969 298.386719 57.816406 C 297.789062 57.875 297.203125 57.988281 296.621094 58.152344 C 296.460938 58.085938 296.351562 57.972656 296.285156 57.816406 C 296.148438 57.367188 296.003906 56.917969 295.867188 56.46875 C 295.652344 56.277344 295.429688 56.277344 295.195312 56.46875 C 294.777344 55.078125 294.386719 53.675781 294.019531 52.261719 C 294.355469 52.167969 294.636719 52 294.859375 51.757812 C 294.640625 51.21875 294.527344 50.65625 294.523438 50.074219 C 294.796875 50.109375 295.050781 50.054688 295.277344 49.90625 C 295.308594 49.570312 295.28125 49.234375 295.195312 48.894531 C 295.714844 48.863281 296.21875 48.75 296.707031 48.558594 C 296.917969 48.246094 296.917969 47.9375 296.707031 47.632812 C 297.34375 47.445312 297.960938 47.25 298.554688 47.042969 Z M 289.484375 49.234375 C 290.054688 49.214844 290.28125 49.492188 290.15625 50.074219 C 290.488281 50.113281 290.792969 50.058594 291.078125 49.90625 C 291.472656 51.714844 291.921875 53.511719 292.421875 55.292969 C 292.765625 55.378906 293.101562 55.4375 293.429688 55.460938 C 293.683594 56.585938 293.933594 57.707031 294.1875 58.828125 C 293.402344 58.746094 293.179688 59.054688 293.515625 59.753906 C 292.753906 59.9375 292 60.132812 291.246094 60.339844 C 290.953125 60.144531 290.785156 59.863281 290.742188 59.5 C 290.464844 59.722656 290.183594 59.722656 289.902344 59.5 C 289.277344 56.617188 288.578125 53.757812 287.804688 50.914062 C 288.0625 50.714844 288.34375 50.546875 288.644531 50.410156 C 288.480469 50.140625 288.449219 49.863281 288.558594 49.570312 C 288.886719 49.46875 289.195312 49.355469 289.484375 49.234375 Z M 285.285156 50.242188 C 285.546875 50.511719 285.660156 50.847656 285.621094 51.253906 C 286 51.113281 286.363281 51.113281 286.710938 51.253906 C 286.871094 51.746094 286.957031 52.25 286.964844 52.765625 C 286.226562 52.664062 286 52.945312 286.292969 53.609375 C 285.664062 53.808594 285.050781 54.03125 284.445312 54.28125 C 284.832031 55.492188 285.113281 56.726562 285.285156 57.984375 C 285.636719 58.015625 285.972656 57.960938 286.292969 57.816406 C 286.621094 58.6875 286.84375 59.585938 286.964844 60.511719 C 286.257812 60.496094 286.035156 60.804688 286.292969 61.4375 C 285.570312 61.65625 284.84375 61.855469 284.109375 62.023438 C 283.914062 61.972656 283.777344 61.859375 283.6875 61.6875 C 283.550781 61.246094 283.46875 60.796875 283.4375 60.339844 C 283.050781 60.421875 282.6875 60.421875 282.34375 60.339844 C 281.988281 58.945312 281.652344 57.542969 281.335938 56.132812 C 280.996094 56.050781 280.632812 56.050781 280.246094 56.132812 C 280.246094 56.46875 280.246094 56.808594 280.246094 57.144531 C 279.746094 57.164062 279.269531 57.277344 278.816406 57.480469 C 278.648438 57.222656 278.5625 56.941406 278.566406 56.636719 C 278.226562 56.726562 277.890625 56.753906 277.558594 56.722656 C 277.613281 56.667969 277.671875 56.609375 277.726562 56.554688 C 277.503906 55.824219 277.277344 55.09375 277.054688 54.367188 C 277.324219 54.320312 277.574219 54.234375 277.808594 54.113281 C 277.839844 53.777344 277.8125 53.441406 277.726562 53.105469 C 278.347656 53.019531 278.960938 52.90625 279.574219 52.765625 C 279.492188 52.378906 279.492188 52.015625 279.574219 51.671875 C 281.511719 51.242188 283.414062 50.765625 285.285156 50.242188 Z M 274.03125 52.9375 C 274.199219 52.9375 274.367188 52.9375 274.535156 52.9375 C 274.566406 53.28125 274.652344 53.621094 274.785156 53.945312 C 275.066406 53.722656 275.347656 53.722656 275.625 53.945312 C 275.992188 55.578125 276.382812 57.207031 276.800781 58.828125 C 277.042969 59.210938 277.351562 59.269531 277.726562 58.996094 C 278.128906 60.128906 278.464844 61.277344 278.734375 62.445312 C 278.445312 62.503906 278.167969 62.589844 277.894531 62.699219 C 277.703125 62.914062 277.703125 63.136719 277.894531 63.371094 C 277.089844 63.726562 276.25 63.953125 275.375 64.042969 C 275.402344 63.757812 275.375 63.476562 275.289062 63.203125 C 275.011719 63.316406 274.730469 63.425781 274.449219 63.539062 C 273.8125 60.5 273.054688 57.5 272.183594 54.535156 C 272.921875 54.421875 273.144531 54.03125 272.855469 53.355469 C 273.273438 53.238281 273.667969 53.097656 274.03125 52.9375 Z M 266.304688 54.789062 C 266.976562 54.675781 267.257812 54.957031 267.144531 55.628906 C 267.714844 55.570312 268.273438 55.457031 268.824219 55.292969 C 269.257812 55.386719 269.425781 55.667969 269.328125 56.132812 C 269.625 56.15625 269.902344 56.101562 270.167969 55.964844 C 270.335938 56.527344 270.503906 57.085938 270.671875 57.648438 C 270.996094 57.660156 271.332031 57.714844 271.679688 57.816406 C 272.125 59.488281 272.515625 61.171875 272.855469 62.867188 C 272.109375 62.910156 271.886719 63.273438 272.183594 63.960938 C 271.546875 63.984375 271.320312 64.265625 271.511719 64.800781 C 271.441406 64.960938 271.332031 65.074219 271.175781 65.136719 C 268.882812 65.699219 266.589844 66.230469 264.289062 66.738281 C 264.125 65.597656 263.871094 64.476562 263.535156 63.371094 C 263.289062 63.160156 263.035156 63.160156 262.777344 63.371094 C 262.226562 61.316406 261.667969 59.269531 261.097656 57.226562 C 261.820312 57.148438 262.046875 56.785156 261.769531 56.132812 C 261.859375 56.015625 261.96875 55.933594 262.105469 55.882812 C 263.546875 55.589844 264.945312 55.222656 266.304688 54.789062 Z M 258.578125 56.636719 C 258.851562 56.917969 259.074219 57.253906 259.25 57.648438 C 259.457031 57.523438 259.683594 57.46875 259.921875 57.480469 C 259.992188 57.992188 260.105469 58.5 260.257812 58.996094 C 260.007812 59.121094 259.757812 59.230469 259.503906 59.332031 C 259.503906 59.601562 259.535156 59.882812 259.585938 60.171875 C 258.304688 60.363281 257.074219 60.699219 255.890625 61.183594 C 255.980469 61.546875 256.121094 61.882812 256.3125 62.191406 C 257.160156 61.875 258.027344 61.679688 258.914062 61.605469 C 259.039062 62.121094 259.207031 62.625 259.417969 63.117188 C 258.472656 63.164062 258.25 63.554688 258.746094 64.296875 C 257.851562 64.519531 256.953125 64.746094 256.058594 64.96875 C 255.777344 65.503906 255.917969 65.867188 256.480469 66.0625 C 257.957031 65.6875 259.441406 65.351562 260.929688 65.054688 C 260.925781 65.617188 261.035156 66.148438 261.265625 66.652344 C 260.976562 66.710938 260.699219 66.796875 260.425781 66.90625 C 260.234375 67.121094 260.234375 67.34375 260.425781 67.578125 C 260.34375 67.636719 260.257812 67.691406 260.175781 67.746094 C 258.199219 68.210938 256.238281 68.714844 254.296875 69.261719 C 254.25 68.898438 254.082031 68.621094 253.792969 68.421875 C 253.542969 68.558594 253.292969 68.589844 253.035156 68.503906 C 253.113281 68.433594 253.167969 68.351562 253.203125 68.253906 C 252.855469 66.996094 252.519531 65.730469 252.195312 64.464844 C 252.285156 64.125 252.511719 63.984375 252.867188 64.042969 C 252.796875 63.15625 252.628906 62.289062 252.363281 61.4375 C 252.550781 61.121094 252.832031 60.980469 253.203125 61.015625 C 253.199219 60.433594 253.085938 59.871094 252.867188 59.332031 C 253.195312 59.121094 253.53125 58.921875 253.875 58.742188 C 253.722656 58.457031 253.667969 58.148438 253.707031 57.816406 C 255.378906 57.550781 257.003906 57.160156 258.578125 56.636719 Z M 245.308594 59.835938 C 245.53125 59.835938 245.757812 59.835938 245.980469 59.835938 C 245.898438 60.621094 246.207031 60.84375 246.90625 60.511719 C 247.296875 61.90625 247.660156 63.308594 247.996094 64.71875 C 247.660156 64.8125 247.378906 64.980469 247.15625 65.222656 C 247.546875 66.679688 247.941406 68.140625 248.332031 69.597656 C 248.027344 69.816406 247.691406 69.984375 247.324219 70.105469 C 247.535156 70.363281 247.535156 70.617188 247.324219 70.863281 C 246.832031 71.023438 246.328125 71.105469 245.8125 71.113281 C 245.8125 70.890625 245.8125 70.664062 245.8125 70.441406 C 245.519531 70.417969 245.238281 70.472656 244.972656 70.609375 C 244.824219 69.890625 244.570312 69.21875 244.21875 68.589844 C 243.714844 68.757812 243.210938 68.925781 242.707031 69.09375 C 242.664062 68.730469 242.496094 68.453125 242.203125 68.253906 C 241.628906 68.394531 241.070312 68.5625 240.523438 68.757812 C 240.386719 68.429688 240.300781 68.09375 240.269531 67.746094 C 239.964844 67.839844 239.683594 67.839844 239.429688 67.746094 C 239.21875 66.980469 238.996094 66.226562 238.757812 65.476562 C 238.980469 65.417969 239.207031 65.363281 239.429688 65.308594 C 239.523438 65.183594 239.582031 65.042969 239.597656 64.886719 C 239.425781 64.109375 239.199219 63.351562 238.925781 62.613281 C 239.214844 62.4375 239.523438 62.296875 239.851562 62.191406 C 239.882812 61.859375 239.851562 61.523438 239.765625 61.183594 C 240.265625 61.164062 240.742188 61.050781 241.195312 60.847656 C 241.15625 61.816406 241.578125 62.097656 242.453125 61.6875 C 242.484375 62.210938 242.597656 62.714844 242.789062 63.203125 C 242.425781 63.320312 242.089844 63.488281 241.78125 63.707031 C 241.949219 64.203125 242.089844 64.710938 242.203125 65.222656 C 242.351562 65.320312 242.519531 65.375 242.707031 65.390625 C 243.238281 65.265625 243.769531 65.152344 244.300781 65.054688 C 244.1875 63.914062 243.960938 62.789062 243.628906 61.6875 C 243.773438 61.304688 244.054688 61.136719 244.46875 61.183594 C 244.492188 60.886719 244.4375 60.605469 244.300781 60.339844 C 244.628906 60.121094 244.964844 59.953125 245.308594 59.835938 Z M 229.183594 63.707031 C 229.464844 63.707031 229.746094 63.707031 230.023438 63.707031 C 229.921875 64.449219 230.203125 64.671875 230.863281 64.382812 C 231.269531 65.757812 231.660156 67.132812 232.039062 68.503906 C 231.804688 68.71875 231.523438 68.800781 231.199219 68.757812 C 231.5 70.378906 231.894531 71.980469 232.375 73.554688 C 232.050781 73.691406 231.714844 73.777344 231.367188 73.808594 C 231.460938 74.113281 231.460938 74.394531 231.367188 74.648438 C 230.882812 74.839844 230.378906 74.953125 229.855469 74.984375 C 229.824219 74.335938 229.515625 74.167969 228.933594 74.480469 C 228.777344 73.816406 228.582031 73.171875 228.34375 72.542969 C 227.746094 72.652344 227.132812 72.734375 226.496094 72.796875 C 226.496094 72.574219 226.496094 72.347656 226.496094 72.125 C 225.929688 72.183594 225.367188 72.292969 224.816406 72.460938 C 224.382812 72.363281 224.214844 72.082031 224.3125 71.617188 C 224.019531 71.59375 223.738281 71.652344 223.472656 71.789062 C 223.234375 70.972656 223.011719 70.160156 222.800781 69.347656 C 223.125 69.285156 223.40625 69.144531 223.640625 68.925781 C 223.417969 68.027344 223.195312 67.128906 222.96875 66.234375 C 223.957031 66.289062 224.179688 65.921875 223.640625 65.136719 C 224.15625 65.023438 224.660156 64.882812 225.152344 64.71875 C 225.242188 64.984375 225.296875 65.320312 225.320312 65.726562 C 225.710938 65.644531 226.101562 65.589844 226.496094 65.558594 C 226.472656 66.070312 226.582031 66.550781 226.832031 66.988281 C 226.589844 67.179688 226.308594 67.289062 225.992188 67.328125 C 225.894531 67.917969 225.976562 68.507812 226.246094 69.09375 C 226.367188 69.1875 226.507812 69.246094 226.664062 69.261719 C 227.214844 69.097656 227.777344 68.984375 228.34375 68.925781 C 228.160156 67.695312 227.882812 66.488281 227.503906 65.308594 C 227.816406 65.117188 228.152344 65.03125 228.511719 65.054688 C 228.425781 64.714844 228.398438 64.378906 228.429688 64.042969 C 228.703125 63.945312 228.953125 63.832031 229.183594 63.707031 Z M 236.742188 65.894531 C 237.007812 65.96875 237.203125 66.136719 237.332031 66.402344 C 237.5625 66.230469 237.699219 66.3125 237.75 66.652344 C 237.628906 67.097656 237.351562 67.351562 236.910156 67.410156 C 237.035156 68.152344 237.484375 68.542969 238.253906 68.589844 C 238.253906 68.8125 238.253906 69.039062 238.253906 69.261719 C 238.476562 69.261719 238.703125 69.261719 238.925781 69.261719 C 238.914062 69.582031 238.972656 69.890625 239.09375 70.1875 C 238.863281 70.457031 238.75 70.765625 238.757812 71.113281 C 238.535156 71.113281 238.308594 71.113281 238.085938 71.113281 C 238.113281 70.9375 238.082031 70.769531 238.003906 70.609375 C 237.832031 70.75 237.636719 70.804688 237.414062 70.777344 C 237.46875 70.398438 237.386719 70.0625 237.164062 69.765625 C 236.925781 69.964844 236.730469 69.90625 236.574219 69.597656 C 235.886719 69.617188 235.4375 69.953125 235.230469 70.609375 C 235.261719 70.785156 235.316406 70.953125 235.398438 71.113281 C 234.984375 71.269531 234.871094 71.519531 235.0625 71.871094 C 234.851562 71.921875 234.65625 72.007812 234.476562 72.125 C 234.023438 71.679688 233.714844 71.148438 233.550781 70.523438 C 233.914062 70.304688 233.96875 70.023438 233.71875 69.683594 C 233.878906 69.601562 234.046875 69.574219 234.222656 69.597656 C 234.238281 69.234375 234.351562 68.898438 234.558594 68.589844 C 234.523438 68.136719 234.328125 68.023438 233.972656 68.253906 C 233.671875 68.015625 233.417969 67.734375 233.214844 67.410156 C 233.382812 67.296875 233.550781 67.1875 233.71875 67.074219 C 233.554688 66.800781 233.667969 66.632812 234.054688 66.570312 C 234.195312 66.738281 234.335938 66.90625 234.476562 67.074219 C 234.953125 67.277344 235.484375 67.277344 236.070312 67.074219 C 236.1875 66.617188 236.414062 66.222656 236.742188 65.894531 Z M 236.742188 65.894531 "/>
</g>
<mask id="mask9">
  <g filter="url(#alpha)">
<rect x="0" y="0" width="324" height="85" style="fill:rgb(0%,0%,0%);fill-opacity:0.827451;stroke:none;"/>
  </g>
</mask>
<clipPath id="clip10">
  <rect x="0" y="0" width="324" height="85"/>
</clipPath>
<g id="surface32" clip-path="url(#clip10)">
<path style=" stroke:none;fill-rule:evenodd;fill:currentColor;fill-opacity:1;" d="M 298.890625 49.738281 C 299.136719 49.984375 299.363281 50.265625 299.5625 50.578125 C 299.824219 50.441406 300.105469 50.386719 300.402344 50.410156 C 300.597656 51.074219 300.679688 51.75 300.652344 52.429688 C 300.425781 52.578125 300.171875 52.636719 299.898438 52.597656 C 299.980469 52.988281 300.035156 53.378906 300.066406 53.777344 C 299.339844 53.890625 298.609375 54 297.882812 54.113281 C 297.964844 53.328125 297.65625 53.105469 296.957031 53.441406 C 296.761719 52.765625 296.566406 52.09375 296.371094 51.421875 C 296.671875 51.285156 296.949219 51.113281 297.210938 50.914062 C 297.019531 50.683594 297.019531 50.457031 297.210938 50.242188 C 297.800781 50.113281 298.359375 49.945312 298.890625 49.738281 Z M 298.890625 49.738281 "/>
</g>
<mask id="mask10">
  <g filter="url(#alpha)">
<rect x="0" y="0" width="324" height="85" style="fill:rgb(0%,0%,0%);fill-opacity:0.784314;stroke:none;"/>
  </g>
</mask>
<clipPath id="clip11">
  <rect x="0" y="0" width="324" height="85"/>
</clipPath>
<g id="surface35" clip-path="url(#clip11)">
<path style=" stroke:none;fill-rule:evenodd;fill:currentColor;fill-opacity:1;" d="M 266.808594 58.320312 C 266.976562 58.308594 267.117188 58.363281 267.230469 58.488281 C 267.285156 58.769531 267.339844 59.050781 267.398438 59.332031 C 267.734375 59.21875 268.070312 59.105469 268.40625 58.996094 C 268.519531 59.617188 268.65625 60.234375 268.824219 60.847656 C 268.679688 61.226562 268.398438 61.394531 267.984375 61.351562 C 268.035156 61.640625 268.066406 61.921875 268.070312 62.191406 C 267.734375 62.304688 267.398438 62.417969 267.0625 62.53125 C 266.9375 62.238281 266.796875 61.960938 266.640625 61.6875 C 266.132812 61.957031 265.796875 61.816406 265.632812 61.265625 C 265.34375 60.472656 265.203125 59.660156 265.214844 58.828125 C 265.757812 58.644531 266.289062 58.476562 266.808594 58.320312 Z M 266.808594 58.320312 "/>
</g>
</defs>
<g id="surface1">
<use xlink:href="#surface5" mask="url(#mask0)"/>
<use xlink:href="#surface8" mask="url(#mask1)"/>
<use xlink:href="#surface11" mask="url(#mask2)"/>
<use xlink:href="#surface14" mask="url(#mask3)"/>
<use xlink:href="#surface17" mask="url(#mask4)"/>
<use xlink:href="#surface20" mask="url(#mask5)"/>
<use xlink:href="#surface23" mask="url(#mask6)"/>
<use xlink:href="#surface26" mask="url(#mask7)"/>
<use xlink:href="#surface29" mask="url(#mask8)"/>
<use xlink:href="#surface32" mask="url(#mask9)"/>
<use xlink:href="#surface35" mask="url(#mask10)"/>
</g>
</svg>
